<?xml version="1.0" encoding="utf-8"?>
<!-- Generator: Adobe Illustrator 21.0.0, SVG Export Plug-In . SVG Version: 6.00 Build 0)  -->
<svg version="1.1" id="Layer_1" xmlns="http://www.w3.org/2000/svg" xmlns:xlink="http://www.w3.org/1999/xlink" x="0px" y="0px"
	 viewBox="0 0 1088 340.2" enable-background="new 0 0 1088 340.2" xml:space="preserve">
<g>
	<path fill="#FFFFFF" d="M430.4,106.4l18.7,0l-54.7,155l-25,0L314,106.5l18.6,0l41.4,117l4.1,11.9c1.5,4.6,2.8,8.6,3.8,11.9h0.5
		c2.3-7.6,4.8-15.5,7.6-23.6L430.4,106.4z"/>
	<path fill="#FFFFFF" d="M519.4,104.8c29.3,0,47.6,4.2,54.9,12.8c7.3,8.5,11,29.9,11.1,64.1c0,36.8-3.5,59.6-10.5,68.2
		c-7,8.6-25.5,13-55.4,13c-29.7,0-48.2-4.2-55.3-12.8c-7.2-8.5-10.8-30.6-10.8-66.3l0-10.9l0.2-14.6c0-20.6,4.6-34.6,13.9-42.2
		C476.7,108.6,494,104.8,519.4,104.8z M519.3,119.5c-24.5,0-38.9,2.8-43,8.2c-4.2,5.5-6.2,24.1-6.2,56.1c0,32,2.1,50.7,6.3,56.2
		c4.2,5.4,18.5,8.2,43,8.1c24.6,0,39-2.8,43.1-8.2c4.2-5.5,6.2-24.2,6.2-56.2l0-10.1l-0.1-14.6c0-17.1-2.9-28-8.7-32.6
		C554.2,121.8,540.6,119.5,519.3,119.5z"/>
	<path fill="#FFFFFF" d="M722.6,106.2l-58.5,90.3l0.1,64.7l-17.5,0l-0.1-64.7l-57.2-90.2l20.3,0l33.3,52.3l6.4,10.1
		c0.8,1.2,1.9,2.9,3.2,5l3.1,5.1h0.5c1.4-2.3,2.4-4,3.1-5.1l3.1-5l6.5-10.1l33.1-52.4L722.6,106.2z"/>
	<path fill="#FFFFFF" d="M801.6,228.2l-78.4,0.1l-11.9,32.8l-18.5,0l56.6-155l24.5,0L832,261l-18.3,0L801.6,228.2z M796.5,215.1
		l-34.5-94.6l-33.9,94.7L796.5,215.1z"/>
	<path fill="#FFFFFF" d="M898.2,183.9l66.4-0.1c0.3,4,0.5,9.6,0.5,16.9c0,27.9-3.4,45.2-10.2,51.8c-6.8,6.6-24.7,10-53.6,10
		c-27.3,0-44.9-3.9-52.7-11.7c-7.8-7.8-11.7-25.4-11.7-52.7l-0.1-22.8l0.1-13.7c0-22.9,4.3-38.2,13-45.8
		c8.7-7.6,26.1-11.4,52.4-11.4c26.3,0,43.3,2.4,51,7.4c7.6,5,11.5,16,11.5,33.2l0,5.9l-17.1,0l0-3.9c0-12.6-2.6-20.4-7.8-23.4
		c-5.2-3-18.7-4.5-40.6-4.4c-20.2,0-32.8,2.4-37.9,7.2c-5.1,4.8-7.6,16.8-7.6,36l-0.2,20.5l0.1,22.1c0,19.5,2.8,31.5,8.5,36
		c5.6,4.5,20.7,6.7,45.1,6.7c18.7,0,30.2-2.1,34.7-6.4c4.4-4.2,6.6-15.3,6.6-33.3c0-1.4-0.3-4.6-0.9-9.5l-49.3,0L898.2,183.9z"/>
	<path fill="#FFFFFF" d="M998,120.7l0,52.8l78.7-0.1l0,14.8l-78.7,0.1l0,57.9l82.1-0.1l0,14.8l-99.5,0.1L980.5,106l99.5-0.1l0,14.8
		L998,120.7z"/>
</g>
<g>
	<g>
		<path fill="#FFFFFF" d="M149.8,340.1L86.1,213.1l0.1,0.1C104.6,128.9,146.5,52.5,224.5,0h0l131.8,0l0,0
			C248.1,104.4,216.8,152.3,149.8,340.1L149.8,340.1z"/>
	</g>
	<path fill="#FFFFFF" d="M68.8,188.2L68.8,188.2c11.4-55.3,59.9-138.9,99.9-163.8H0L68.8,188.2z"/>
</g>
</svg>
